<svg width="16" height="16" viewBox="0 0 16 16" fill="none" xmlns="http://www.w3.org/2000/svg">
<path fill-rule="evenodd" clip-rule="evenodd" d="M1 5C0.447715 5 0 5.44772 0 6V11C0 11.5523 0.447715 12 1 12H4C4.55228 12 5 11.5523 5 11V6C5 5.44772 4.55228 5 4 5H1ZM3.5 9.5C3.5 10.0523 3.05228 10.5 2.5 10.5C1.94772 10.5 1.5 10.0523 1.5 9.5V7.5C1.5 6.94772 1.94772 6.5 2.5 6.5C3.05228 6.5 3.5 6.94772 3.5 7.5V9.5Z" fill="#BB87FF"/>
<path fill-rule="evenodd" clip-rule="evenodd" d="M7 5C6.44772 5 6 5.44772 6 6V11C6 11.5523 6.44772 12 7 12H10.25C10.6642 12 11 11.6642 11 11.25C11 10.8358 10.6642 10.5 10.25 10.5H8.5C7.94772 10.5 7.5 10.0523 7.5 9.5V7.5C7.5 6.94772 7.94772 6.5 8.5 6.5H10.25C10.6642 6.5 11 6.16421 11 5.75C11 5.33579 10.6642 5 10.25 5H7Z" fill="#BB87FF"/>
<path d="M10 8.5C10 7.94772 10.4477 7.5 11 7.5H15C15.5523 7.5 16 7.94772 16 8.5C16 9.05228 15.5523 9.5 15 9.5H11C10.4477 9.5 10 9.05228 10 8.5Z" fill="#BB87FF"/>
<path d="M13 5.5C13.5523 5.5 14 5.94772 14 6.5V10.5C14 11.0523 13.5523 11.5 13 11.5C12.4477 11.5 12 11.0523 12 10.5V6.5C12 5.94772 12.4477 5.5 13 5.5Z" fill="#BB87FF"/>
</svg>